v 0.000000 1.000000 0.000000
v 0.000000 -1.000000 0.000000
v -0.000000 1.000000 -1.000000
v -0.000000 -1.000000 -1.000000
v -0.000000 1.000000 -1.000000
v -0.000000 -1.000000 -1.000000
v -0.951057 1.000000 -0.309017
v -0.951057 -1.000000 -0.309017
v -0.951057 1.000000 -0.309017
v -0.951057 -1.000000 -0.309017
v -0.587785 1.000000 0.809017
v -0.587785 -1.000000 0.809017
v -0.587785 1.000000 0.809017
v -0.587785 -1.000000 0.809017
v 0.587785 1.000000 0.809017
v 0.587785 -1.000000 0.809017
v 0.587785 1.000000 0.809017
v 0.587785 -1.000000 0.809017
v 0.951056 1.000000 -0.309017
v 0.951056 -1.000000 -0.309017
v 0.951056 1.000000 -0.309017
v 0.951056 -1.000000 -0.309017
v 0.000000 1.000000 -1.000000
v 0.000000 -1.000000 -1.000000
vn 0.000000 1.000000 0.000000
vn 0.000000 -1.000000 0.000000
vn -0.000000 0.000000 -1.000000
vn -0.000000 0.000000 -1.000000
vn 0.000000 1.000000 0.000000
vn 0.000000 -1.000000 0.000000
vn -0.951057 0.000000 -0.309017
vn -0.951057 0.000000 -0.309017
vn 0.000000 1.000000 0.000000
vn 0.000000 -1.000000 0.000000
vn -0.587785 0.000000 0.809017
vn -0.587785 0.000000 0.809017
vn 0.000000 1.000000 0.000000
vn 0.000000 -1.000000 0.000000
vn 0.587785 0.000000 0.809017
vn 0.587785 0.000000 0.809017
vn 0.000000 1.000000 0.000000
vn 0.000000 -1.000000 0.000000
vn 0.951056 0.000000 -0.309017
vn 0.951056 0.000000 -0.309017
vn 0.000000 1.000000 0.000000
vn 0.000000 -1.000000 0.000000
vn 0.000000 0.000000 -1.000000
vn 0.000000 0.000000 -1.000000
vt 0.750000 0.750000
vt 0.250000 0.750000
vt 0.000000 0.500000
vt 0.000000 0.000000
vt 0.750000 1.000000
vt 0.250000 0.500000
vt 0.200000 0.500000
vt 0.200000 0.000000
vt 0.512236 0.827254
vt 0.012236 0.672746
vt 0.400000 0.500000
vt 0.400000 0.000000
vt 0.603054 0.547746
vt 0.103054 0.952254
vt 0.600000 0.500000
vt 0.600000 0.000000
vt 0.896946 0.547746
vt 0.396946 0.952254
vt 0.800000 0.500000
vt 0.800000 0.000000
vt 0.987764 0.827254
vt 0.487764 0.672746
vt 1.000000 0.500000
vt 1.000000 0.000000
f 3/3/3 4/4/4 7/7/7
f 7/7/7 4/4/4 8/8/8
f 7/7/7 8/8/8 11/11/11
f 11/11/11 8/8/8 12/12/12
f 11/11/11 12/12/12 15/15/15
f 15/15/15 12/12/12 16/16/16
f 15/15/15 16/16/16 19/19/19
f 19/19/19 16/16/16 20/20/20
f 19/19/19 20/20/20 23/23/23
f 23/23/23 20/20/20 24/24/24
f 1/1/1 5/5/5 9/9/9
f 2/2/2 10/10/10 6/6/6
f 1/1/1 9/9/9 13/13/13
f 2/2/2 14/14/14 10/10/10
f 1/1/1 13/13/13 17/17/17
f 2/2/2 18/18/18 14/14/14
f 1/1/1 17/17/17 21/21/21
f 2/2/2 22/22/22 18/18/18
f 1/1/1 21/21/21 5/5/5
f 2/2/2 6/6/6 22/22/22
